<svg width="123" height="33" viewBox="0 0 123 33" fill="none" xmlns="http://www.w3.org/2000/svg">
<g clip-path="url(#clip0_2428_284)">
<path d="M35.53 0V33H32.67L30.03 28.27H8.25L19.03 9.515H8.25L10.945 13.97L0 33V0H2.86L5.5 4.73H27.28L16.5 23.485H27.28L24.585 19.03L35.53 0Z" fill="url(#paint0_linear_2428_284)"/>
</g>
<g clip-path="url(#clip1_2428_284)">
<path fill-rule="evenodd" clip-rule="evenodd" d="M70.3998 7.7002H72.7648V24.9702H70.3998V7.7002ZM85.9098 7.7002H80.6848V24.9702H83.0498V16.9952C83.2698 17.0502 83.5448 17.1052 83.8748 17.1602C84.1498 17.2152 84.4798 17.2702 84.8098 17.3252C85.1398 17.3802 85.4148 17.3802 85.7448 17.4352C86.0748 17.4352 86.3498 17.4902 86.6798 17.4902C87.3398 17.4902 87.9998 17.3802 88.6598 17.1602C89.3198 16.9402 89.8698 16.6652 90.4198 16.2252C90.9148 15.8402 91.3548 15.2902 91.6848 14.7402C92.0148 14.1352 92.1798 13.4202 92.1798 12.6502C92.1798 11.8802 92.0148 11.1652 91.6848 10.5602C91.3548 9.9552 90.9148 9.4052 90.3648 9.0202C89.8148 8.5802 89.1548 8.2502 88.3848 8.0302C87.5598 7.8102 86.7348 7.7002 85.9098 7.7002ZM84.2598 16.2252C83.8748 16.1152 83.4348 16.0052 83.0498 15.8402V8.9652H85.3598C85.9098 8.9652 86.4598 9.0752 86.9548 9.2402C87.4498 9.4052 87.8898 9.6802 88.2748 10.0102C88.6598 10.3402 88.9348 10.7252 89.1548 11.2202C89.3748 11.7152 89.4848 12.2102 89.4848 12.8152C89.4848 13.3102 89.4298 13.8052 89.2648 14.2452C89.0998 14.6852 88.8248 15.0702 88.4948 15.4002C88.1648 15.7302 87.7248 15.9502 87.2298 16.1702C86.7348 16.3352 86.1298 16.4452 85.4698 16.4452C85.0848 16.3902 84.6998 16.3352 84.2598 16.2252ZM98.7248 7.7002H101.09V24.9702H98.7248V7.7002ZM122.045 7.7002V8.8002H115.775V24.9152H113.41V8.8002H107.14V7.7002H122.045ZM52.3048 23.8152L64.7898 7.7002H48.8398V8.8002H60.8848L48.8398 24.4752V24.9702H64.6798V23.8702H52.3048V23.8152Z" fill="url(#paint1_linear_2428_284)"/>
</g>
<defs>
<linearGradient id="paint0_linear_2428_284" x1="35.7093" y1="19.3402" x2="3.04783" y2="14.1661" gradientUnits="userSpaceOnUse">
<stop stop-color="#7000FF"/>
<stop offset="1" stop-color="#AB2FFE"/>
</linearGradient>
<linearGradient id="paint1_linear_2428_284" x1="111.849" y1="-2.0898" x2="62.2118" y2="28.8915" gradientUnits="userSpaceOnUse">
<stop stop-color="#7000FF"/>
<stop offset="1" stop-color="#AB2FFE"/>
</linearGradient>
<clipPath id="clip0_2428_284">
<rect width="35.75" height="33" fill="white"/>
</clipPath>
<clipPath id="clip1_2428_284">
<rect width="73.205" height="17.27" fill="white" transform="translate(48.8398 7.7002)"/>
</clipPath>
</defs>
</svg>
