<svg width="222" height="60" viewBox="0 0 222 60" fill="none" xmlns="http://www.w3.org/2000/svg">
<g clip-path="url(#clip0_3715_290)">
<path d="M64.6 0V60H59.4L54.6 51.4H15L34.6 17.3H15L19.9 25.4L0 60V0H5.2L10 8.6H49.6L30 42.7H49.6L44.7 34.6L64.6 0Z" fill="url(#paint0_linear_3715_290)"/>
</g>
<g clip-path="url(#clip1_3715_290)">
<path fill-rule="evenodd" clip-rule="evenodd" d="M128 14H132.3V45.4H128V14ZM156.2 14H146.7V45.4H151V30.9C151.4 31 151.9 31.1 152.5 31.2C153 31.3 153.6 31.4 154.2 31.5C154.8 31.6 155.3 31.6 155.9 31.7C156.5 31.7 157 31.8 157.6 31.8C158.8 31.8 160 31.6 161.2 31.2C162.4 30.8 163.4 30.3 164.4 29.5C165.3 28.8 166.1 27.8 166.7 26.8C167.3 25.7 167.6 24.4 167.6 23C167.6 21.6 167.3 20.3 166.7 19.2C166.1 18.1 165.3 17.1 164.3 16.4C163.3 15.6 162.1 15 160.7 14.6C159.2 14.2 157.7 14 156.2 14ZM153.2 29.5C152.5 29.3 151.7 29.1 151 28.8V16.3H155.2C156.2 16.3 157.2 16.5 158.1 16.8C159 17.1 159.8 17.6 160.5 18.2C161.2 18.8 161.7 19.5 162.1 20.4C162.5 21.3 162.7 22.2 162.7 23.3C162.7 24.2 162.6 25.1 162.3 25.9C162 26.7 161.5 27.4 160.9 28C160.3 28.6 159.5 29 158.6 29.4C157.7 29.7 156.6 29.9 155.4 29.9C154.7 29.8 154 29.7 153.2 29.5ZM179.5 14H183.8V45.4H179.5V14ZM221.9 14V16H210.5V45.3H206.2V16H194.8V14H221.9ZM95.0998 43.3L117.8 14H88.7998V16H110.7L88.7998 44.5V45.4H117.6V43.4H95.0998V43.3Z" fill="url(#paint1_linear_3715_290)"/>
</g>
<defs>
<linearGradient id="paint0_linear_3715_290" x1="64.926" y1="35.164" x2="5.5415" y2="25.7565" gradientUnits="userSpaceOnUse">
<stop stop-color="#7000FF"/>
<stop offset="1" stop-color="#AB2FFE"/>
</linearGradient>
<linearGradient id="paint1_linear_3715_290" x1="203.362" y1="-3.8" x2="113.113" y2="52.5297" gradientUnits="userSpaceOnUse">
<stop stop-color="#7000FF"/>
<stop offset="1" stop-color="#AB2FFE"/>
</linearGradient>
<clipPath id="clip0_3715_290">
<rect width="65" height="60" fill="white"/>
</clipPath>
<clipPath id="clip1_3715_290">
<rect width="133.1" height="31.4" fill="white" transform="translate(88.7998 14)"/>
</clipPath>
</defs>
</svg>
